<mxfile host="www.draw.io" modified="2020-03-19T14:14:55.507Z" agent="Mozilla/5.0 (Windows NT 10.0; Win64; x64) AppleWebKit/537.36 (KHTML, like Gecko) Chrome/80.0.3987.132 Safari/537.36" etag="ax6vA8e0EjnAGHJrTzPe" version="12.8.8" type="github">
  <diagram id="VvqGy8qrrSqzTx67XHq5" name="PÃ¡gina-1">
    <mxGraphModel dx="2913" dy="1724" grid="1" gridSize="10" guides="1" tooltips="1" connect="1" arrows="1" fold="1" page="1" pageScale="1" pageWidth="827" pageHeight="1169" math="0" shadow="0">
      <root>
        <mxCell id="0" />
        <mxCell id="1" parent="0" />
        <mxCell id="IHVAyDiuJe2hWlR-bfKC-25" style="edgeStyle=orthogonalEdgeStyle;rounded=0;orthogonalLoop=1;jettySize=auto;html=1;" parent="1" source="IHVAyDiuJe2hWlR-bfKC-1" target="IHVAyDiuJe2hWlR-bfKC-2" edge="1">
          <mxGeometry relative="1" as="geometry" />
        </mxCell>
        <mxCell id="IHVAyDiuJe2hWlR-bfKC-1" value="&lt;p style=&quot;margin: 0px ; margin-top: 4px ; text-align: center ; text-decoration: underline&quot;&gt;&lt;b&gt;Usuario&lt;/b&gt;&lt;/p&gt;&lt;hr&gt;&lt;p style=&quot;margin: 0px ; margin-left: 8px&quot;&gt;Id&lt;/p&gt;&lt;p style=&quot;margin: 0px ; margin-left: 8px&quot;&gt;nome&lt;/p&gt;&lt;p style=&quot;margin: 0px ; margin-left: 8px&quot;&gt;cpf&lt;/p&gt;&lt;p style=&quot;margin: 0px ; margin-left: 8px&quot;&gt;email&lt;/p&gt;&lt;p style=&quot;margin: 0px ; margin-left: 8px&quot;&gt;data_nascimento&lt;/p&gt;" style="verticalAlign=top;align=left;overflow=fill;fontSize=12;fontFamily=Helvetica;html=1;strokeColor=#003366;shadow=1;fillColor=#D4E1F5;fontColor=#003366" parent="1" vertex="1">
          <mxGeometry x="-980" y="170" width="160" height="120" as="geometry" />
        </mxCell>
        <mxCell id="IHVAyDiuJe2hWlR-bfKC-56" style="edgeStyle=orthogonalEdgeStyle;rounded=0;orthogonalLoop=1;jettySize=auto;html=1;entryX=0.25;entryY=1;entryDx=0;entryDy=0;" parent="1" source="IHVAyDiuJe2hWlR-bfKC-2" target="IHVAyDiuJe2hWlR-bfKC-7" edge="1">
          <mxGeometry relative="1" as="geometry">
            <Array as="points">
              <mxPoint x="-360" y="230" />
            </Array>
            <mxPoint x="-360" y="230" as="targetPoint" />
          </mxGeometry>
        </mxCell>
        <mxCell id="IHVAyDiuJe2hWlR-bfKC-2" value="&lt;p style=&quot;margin: 0px ; margin-top: 4px ; text-align: center ; text-decoration: underline&quot;&gt;&lt;b&gt;FKUsuario_Empresa&lt;/b&gt;&lt;/p&gt;&lt;hr&gt;&lt;p style=&quot;margin: 0px ; margin-left: 8px&quot;&gt;Id&lt;/p&gt;&lt;p style=&quot;margin: 0px ; margin-left: 8px&quot;&gt;IdUsuario(FK)&lt;/p&gt;&lt;p style=&quot;margin: 0px ; margin-left: 8px&quot;&gt;IdEmpresa(FK)&lt;/p&gt;&lt;p style=&quot;margin: 0px ; margin-left: 8px&quot;&gt;&lt;br&gt;&lt;/p&gt;" style="verticalAlign=top;align=left;overflow=fill;fontSize=12;fontFamily=Helvetica;html=1;strokeColor=#003366;shadow=1;fillColor=#D4E1F5;fontColor=#003366;direction=west;" parent="1" vertex="1">
          <mxGeometry x="-783" y="170" width="160" height="120" as="geometry" />
        </mxCell>
        <mxCell id="S3335GlJZNiLPeRAQWJQ-27" style="edgeStyle=orthogonalEdgeStyle;rounded=0;orthogonalLoop=1;jettySize=auto;html=1;entryX=0.005;entryY=0.417;entryDx=0;entryDy=0;entryPerimeter=0;" parent="1" source="IHVAyDiuJe2hWlR-bfKC-4" target="IHVAyDiuJe2hWlR-bfKC-7" edge="1">
          <mxGeometry relative="1" as="geometry" />
        </mxCell>
        <mxCell id="uRaay0qYqFroeMQSRzV6-13" style="edgeStyle=orthogonalEdgeStyle;rounded=0;orthogonalLoop=1;jettySize=auto;html=1;entryX=1;entryY=0.5;entryDx=0;entryDy=0;" edge="1" parent="1" source="IHVAyDiuJe2hWlR-bfKC-4" target="uRaay0qYqFroeMQSRzV6-12">
          <mxGeometry relative="1" as="geometry" />
        </mxCell>
        <mxCell id="IHVAyDiuJe2hWlR-bfKC-4" value="&lt;p style=&quot;margin: 0px ; margin-top: 4px ; text-align: center ; text-decoration: underline&quot;&gt;&lt;b&gt;veiculo_categoria&lt;/b&gt;&lt;/p&gt;&lt;hr&gt;&lt;p style=&quot;margin: 0px ; margin-left: 8px&quot;&gt;Id&lt;/p&gt;&lt;p style=&quot;margin: 0px ; margin-left: 8px&quot;&gt;nome&lt;/p&gt;" style="verticalAlign=top;align=left;overflow=fill;fontSize=12;fontFamily=Helvetica;html=1;strokeColor=#003366;shadow=1;fillColor=#D4E1F5;fontColor=#003366" parent="1" vertex="1">
          <mxGeometry x="-590" y="50" width="130" height="120" as="geometry" />
        </mxCell>
        <mxCell id="IHVAyDiuJe2hWlR-bfKC-70" style="edgeStyle=orthogonalEdgeStyle;rounded=0;orthogonalLoop=1;jettySize=auto;html=1;entryX=0;entryY=0.75;entryDx=0;entryDy=0;strokeColor=#0DE7FF;" parent="1" source="IHVAyDiuJe2hWlR-bfKC-7" target="IHVAyDiuJe2hWlR-bfKC-46" edge="1">
          <mxGeometry relative="1" as="geometry">
            <Array as="points">
              <mxPoint x="-150" y="80" />
              <mxPoint x="-150" y="80" />
            </Array>
          </mxGeometry>
        </mxCell>
        <mxCell id="S3335GlJZNiLPeRAQWJQ-18" style="edgeStyle=orthogonalEdgeStyle;rounded=0;orthogonalLoop=1;jettySize=auto;html=1;strokeColor=#FF6666;" parent="1" source="IHVAyDiuJe2hWlR-bfKC-7" edge="1">
          <mxGeometry relative="1" as="geometry">
            <mxPoint x="-74" y="210" as="targetPoint" />
            <Array as="points">
              <mxPoint x="-160" y="131" />
              <mxPoint x="-160" y="210" />
            </Array>
          </mxGeometry>
        </mxCell>
        <mxCell id="S3335GlJZNiLPeRAQWJQ-26" style="edgeStyle=orthogonalEdgeStyle;rounded=0;orthogonalLoop=1;jettySize=auto;html=1;entryX=0.706;entryY=1.015;entryDx=0;entryDy=0;entryPerimeter=0;" parent="1" source="IHVAyDiuJe2hWlR-bfKC-7" target="IHVAyDiuJe2hWlR-bfKC-72" edge="1">
          <mxGeometry relative="1" as="geometry">
            <mxPoint x="-320" y="-30" as="targetPoint" />
            <Array as="points">
              <mxPoint x="-283" y="30" />
              <mxPoint x="-283" y="30" />
            </Array>
          </mxGeometry>
        </mxCell>
        <mxCell id="VIZTpnqmuirVWNDH8mlG-4" style="edgeStyle=orthogonalEdgeStyle;rounded=0;orthogonalLoop=1;jettySize=auto;html=1;strokeColor=#000000;entryX=0.5;entryY=1;entryDx=0;entryDy=0;" parent="1" source="IHVAyDiuJe2hWlR-bfKC-7" target="Db5_0AzRxlFm09WnYyrj-18" edge="1">
          <mxGeometry relative="1" as="geometry">
            <mxPoint x="-460" y="-10" as="targetPoint" />
            <Array as="points">
              <mxPoint x="-320" y="30" />
              <mxPoint x="-535" y="30" />
            </Array>
          </mxGeometry>
        </mxCell>
        <mxCell id="3JUktmmr_IrkGArznt6v-7" style="edgeStyle=orthogonalEdgeStyle;rounded=0;orthogonalLoop=1;jettySize=auto;html=1;" parent="1" source="IHVAyDiuJe2hWlR-bfKC-7" target="S3335GlJZNiLPeRAQWJQ-48" edge="1">
          <mxGeometry relative="1" as="geometry">
            <Array as="points">
              <mxPoint x="-130" y="131" />
              <mxPoint x="-130" y="320" />
              <mxPoint x="20" y="320" />
            </Array>
          </mxGeometry>
        </mxCell>
        <mxCell id="IHVAyDiuJe2hWlR-bfKC-7" value="&lt;p style=&quot;margin: 0px ; margin-top: 4px ; text-align: center ; text-decoration: underline&quot;&gt;&lt;b&gt;Veiculo&lt;/b&gt;&lt;/p&gt;&lt;hr&gt;&lt;p style=&quot;margin: 0px ; margin-left: 8px&quot;&gt;Id&lt;/p&gt;&lt;p style=&quot;margin: 0px ; margin-left: 8px&quot;&gt;idEmpresa(FK)&lt;/p&gt;&lt;p style=&quot;margin: 0px ; margin-left: 8px&quot;&gt;idVeiculo_Categoria(FK)&lt;/p&gt;&lt;p style=&quot;margin: 0px ; margin-left: 8px&quot;&gt;idUsuario_Empresa(FK)&lt;/p&gt;&lt;p style=&quot;margin: 0px 0px 0px 8px&quot;&gt;idVeiculo_uf_cidade(FK)&lt;/p&gt;&lt;div&gt;&lt;br&gt;&lt;/div&gt;&lt;p style=&quot;margin: 0px ; margin-left: 8px&quot;&gt;&lt;br&gt;&lt;/p&gt;" style="verticalAlign=top;align=left;overflow=fill;fontSize=12;fontFamily=Helvetica;html=1;strokeColor=#003366;shadow=1;fillColor=#D4E1F5;fontColor=#003366" parent="1" vertex="1">
          <mxGeometry x="-400" y="50.000000000000014" width="160" height="161.64" as="geometry" />
        </mxCell>
        <mxCell id="IHVAyDiuJe2hWlR-bfKC-24" style="edgeStyle=orthogonalEdgeStyle;rounded=0;orthogonalLoop=1;jettySize=auto;html=1;entryX=0.5;entryY=0;entryDx=0;entryDy=0;" parent="1" source="IHVAyDiuJe2hWlR-bfKC-8" target="IHVAyDiuJe2hWlR-bfKC-2" edge="1">
          <mxGeometry relative="1" as="geometry" />
        </mxCell>
        <mxCell id="IHVAyDiuJe2hWlR-bfKC-57" style="edgeStyle=orthogonalEdgeStyle;rounded=0;orthogonalLoop=1;jettySize=auto;html=1;" parent="1" source="IHVAyDiuJe2hWlR-bfKC-8" edge="1">
          <mxGeometry relative="1" as="geometry">
            <mxPoint x="-310" y="212" as="targetPoint" />
            <Array as="points">
              <mxPoint x="-590" y="400" />
              <mxPoint x="-590" y="261" />
              <mxPoint x="-310" y="261" />
              <mxPoint x="-310" y="212" />
            </Array>
          </mxGeometry>
        </mxCell>
        <mxCell id="owEOn5q1X3vnZ0hOoGGE-1" style="edgeStyle=orthogonalEdgeStyle;rounded=0;orthogonalLoop=1;jettySize=auto;html=1;entryX=0;entryY=0.75;entryDx=0;entryDy=0;" parent="1" source="IHVAyDiuJe2hWlR-bfKC-8" target="IHVAyDiuJe2hWlR-bfKC-32" edge="1">
          <mxGeometry relative="1" as="geometry">
            <mxPoint x="-700" y="840" as="targetPoint" />
            <Array as="points">
              <mxPoint x="-650" y="833" />
            </Array>
          </mxGeometry>
        </mxCell>
        <mxCell id="pWZ6Bo8y2bVhWnRweAg2-1" style="edgeStyle=orthogonalEdgeStyle;rounded=0;orthogonalLoop=1;jettySize=auto;html=1;entryX=0.5;entryY=0;entryDx=0;entryDy=0;" parent="1" source="IHVAyDiuJe2hWlR-bfKC-8" target="IHVAyDiuJe2hWlR-bfKC-36" edge="1">
          <mxGeometry relative="1" as="geometry">
            <Array as="points">
              <mxPoint x="-760" y="581" />
              <mxPoint x="-745" y="581" />
            </Array>
          </mxGeometry>
        </mxCell>
        <mxCell id="uRaay0qYqFroeMQSRzV6-11" style="edgeStyle=orthogonalEdgeStyle;rounded=0;orthogonalLoop=1;jettySize=auto;html=1;entryX=1;entryY=0.5;entryDx=0;entryDy=0;" edge="1" parent="1" source="IHVAyDiuJe2hWlR-bfKC-8" target="uRaay0qYqFroeMQSRzV6-8">
          <mxGeometry relative="1" as="geometry" />
        </mxCell>
        <mxCell id="IHVAyDiuJe2hWlR-bfKC-8" value="&lt;p style=&quot;margin: 0px ; margin-top: 4px ; text-align: center ; text-decoration: underline&quot;&gt;&lt;b&gt;Empresa&lt;/b&gt;&lt;/p&gt;&lt;hr&gt;&lt;p style=&quot;margin: 0px ; margin-left: 8px&quot;&gt;Id&lt;/p&gt;&lt;p style=&quot;margin: 0px ; margin-left: 8px&quot;&gt;nome&lt;/p&gt;&lt;p style=&quot;margin: 0px ; margin-left: 8px&quot;&gt;email&lt;/p&gt;&lt;p style=&quot;margin: 0px ; margin-left: 8px&quot;&gt;&lt;span&gt;cnpj&lt;/span&gt;&lt;br&gt;&lt;/p&gt;&lt;p style=&quot;margin: 0px ; margin-left: 8px&quot;&gt;endereÃ§o&lt;/p&gt;&lt;p style=&quot;margin: 0px ; margin-left: 8px&quot;&gt;numero&lt;/p&gt;&lt;p style=&quot;margin: 0px ; margin-left: 8px&quot;&gt;bairro&lt;/p&gt;&lt;p style=&quot;margin: 0px ; margin-left: 8px&quot;&gt;&lt;span&gt;CEP&lt;/span&gt;&lt;br&gt;&lt;/p&gt;&lt;p style=&quot;margin: 0px ; margin-left: 8px&quot;&gt;cidade_id (FK) (sede)&lt;/p&gt;&lt;p style=&quot;margin: 0px ; margin-left: 8px&quot;&gt;&lt;span&gt;uf_id (FK) (sede)&lt;/span&gt;&lt;/p&gt;&lt;p style=&quot;margin: 0px ; margin-left: 8px&quot;&gt;&lt;br&gt;&lt;/p&gt;" style="verticalAlign=top;align=left;overflow=fill;fontSize=12;fontFamily=Helvetica;html=1;strokeColor=#003366;shadow=1;fillColor=#D4E1F5;fontColor=#003366" parent="1" vertex="1">
          <mxGeometry x="-783" y="330" width="160" height="220" as="geometry" />
        </mxCell>
        <mxCell id="IHVAyDiuJe2hWlR-bfKC-61" style="edgeStyle=orthogonalEdgeStyle;rounded=0;orthogonalLoop=1;jettySize=auto;html=1;" parent="1" source="IHVAyDiuJe2hWlR-bfKC-18" target="IHVAyDiuJe2hWlR-bfKC-8" edge="1">
          <mxGeometry relative="1" as="geometry">
            <Array as="points">
              <mxPoint x="-587" y="562" />
              <mxPoint x="-587" y="530" />
            </Array>
          </mxGeometry>
        </mxCell>
        <mxCell id="S3335GlJZNiLPeRAQWJQ-10" style="edgeStyle=orthogonalEdgeStyle;rounded=0;orthogonalLoop=1;jettySize=auto;html=1;entryX=0.25;entryY=1;entryDx=0;entryDy=0;" parent="1" source="IHVAyDiuJe2hWlR-bfKC-18" target="IHVAyDiuJe2hWlR-bfKC-83" edge="1">
          <mxGeometry relative="1" as="geometry" />
        </mxCell>
        <mxCell id="IHVAyDiuJe2hWlR-bfKC-18" value="&lt;p style=&quot;margin: 0px ; margin-top: 4px ; text-align: center ; text-decoration: underline&quot;&gt;&lt;b&gt;cidade&lt;/b&gt;&lt;/p&gt;&lt;hr&gt;&lt;p style=&quot;margin: 0px ; margin-left: 8px&quot;&gt;Id&lt;/p&gt;&lt;p style=&quot;margin: 0px ; margin-left: 8px&quot;&gt;nome&lt;/p&gt;&lt;p style=&quot;margin: 0px ; margin-left: 8px&quot;&gt;idUF(FK)&lt;/p&gt;&lt;p style=&quot;margin: 0px ; margin-left: 8px&quot;&gt;ibge&lt;/p&gt;&lt;p style=&quot;margin: 0px ; margin-left: 8px&quot;&gt;&lt;br&gt;&lt;/p&gt;" style="verticalAlign=top;align=left;overflow=fill;fontSize=12;fontFamily=Helvetica;html=1;strokeColor=#003366;shadow=1;fillColor=#D4E1F5;fontColor=#003366" parent="1" vertex="1">
          <mxGeometry x="-550" y="511.64" width="160" height="100" as="geometry" />
        </mxCell>
        <mxCell id="IHVAyDiuJe2hWlR-bfKC-64" style="edgeStyle=orthogonalEdgeStyle;rounded=0;orthogonalLoop=1;jettySize=auto;html=1;entryX=0.5;entryY=0;entryDx=0;entryDy=0;" parent="1" source="IHVAyDiuJe2hWlR-bfKC-19" target="IHVAyDiuJe2hWlR-bfKC-18" edge="1">
          <mxGeometry relative="1" as="geometry" />
        </mxCell>
        <mxCell id="IHVAyDiuJe2hWlR-bfKC-65" style="edgeStyle=orthogonalEdgeStyle;rounded=0;orthogonalLoop=1;jettySize=auto;html=1;entryX=1;entryY=0.5;entryDx=0;entryDy=0;" parent="1" source="IHVAyDiuJe2hWlR-bfKC-19" target="IHVAyDiuJe2hWlR-bfKC-8" edge="1">
          <mxGeometry relative="1" as="geometry">
            <Array as="points">
              <mxPoint x="-570" y="440" />
              <mxPoint x="-570" y="440" />
            </Array>
          </mxGeometry>
        </mxCell>
        <mxCell id="S3335GlJZNiLPeRAQWJQ-12" style="edgeStyle=orthogonalEdgeStyle;rounded=0;orthogonalLoop=1;jettySize=auto;html=1;entryX=0;entryY=0.564;entryDx=0;entryDy=0;entryPerimeter=0;" parent="1" source="IHVAyDiuJe2hWlR-bfKC-19" target="IHVAyDiuJe2hWlR-bfKC-83" edge="1">
          <mxGeometry relative="1" as="geometry">
            <Array as="points">
              <mxPoint x="-470" y="342" />
            </Array>
          </mxGeometry>
        </mxCell>
        <mxCell id="IHVAyDiuJe2hWlR-bfKC-19" value="&lt;p style=&quot;margin: 0px ; margin-top: 4px ; text-align: center ; text-decoration: underline&quot;&gt;&lt;b&gt;uf&lt;/b&gt;&lt;/p&gt;&lt;hr&gt;&lt;p style=&quot;margin: 0px ; margin-left: 8px&quot;&gt;Id&lt;/p&gt;&lt;p style=&quot;margin: 0px ; margin-left: 8px&quot;&gt;nome&lt;/p&gt;&lt;p style=&quot;margin: 0px ; margin-left: 8px&quot;&gt;uf&lt;/p&gt;&lt;p style=&quot;margin: 0px ; margin-left: 8px&quot;&gt;ibge&lt;/p&gt;&lt;p style=&quot;margin: 0px ; margin-left: 8px&quot;&gt;&lt;span&gt;ddd&lt;/span&gt;&lt;br&gt;&lt;/p&gt;" style="verticalAlign=top;align=left;overflow=fill;fontSize=12;fontFamily=Helvetica;html=1;strokeColor=#003366;shadow=1;fillColor=#D4E1F5;fontColor=#003366" parent="1" vertex="1">
          <mxGeometry x="-550" y="360" width="160" height="110" as="geometry" />
        </mxCell>
        <mxCell id="IHVAyDiuJe2hWlR-bfKC-35" style="edgeStyle=orthogonalEdgeStyle;rounded=0;orthogonalLoop=1;jettySize=auto;html=1;" parent="1" source="IHVAyDiuJe2hWlR-bfKC-30" target="IHVAyDiuJe2hWlR-bfKC-32" edge="1">
          <mxGeometry relative="1" as="geometry" />
        </mxCell>
        <mxCell id="uRaay0qYqFroeMQSRzV6-2" style="edgeStyle=orthogonalEdgeStyle;rounded=0;orthogonalLoop=1;jettySize=auto;html=1;entryX=0;entryY=0.5;entryDx=0;entryDy=0;" edge="1" parent="1" source="IHVAyDiuJe2hWlR-bfKC-30" target="pWZ6Bo8y2bVhWnRweAg2-4">
          <mxGeometry relative="1" as="geometry" />
        </mxCell>
        <mxCell id="IHVAyDiuJe2hWlR-bfKC-30" value="&lt;p style=&quot;margin: 0px ; margin-top: 4px ; text-align: center ; text-decoration: underline&quot;&gt;&lt;b&gt;tipo_telefone&lt;/b&gt;&lt;/p&gt;&lt;hr&gt;&lt;p style=&quot;margin: 0px ; margin-left: 8px&quot;&gt;Id&lt;/p&gt;&lt;p style=&quot;margin: 0px ; margin-left: 8px&quot;&gt;nome&lt;/p&gt;" style="verticalAlign=top;align=left;overflow=fill;fontSize=12;fontFamily=Helvetica;html=1;strokeColor=#003366;shadow=1;fillColor=#D4E1F5;fontColor=#003366" parent="1" vertex="1">
          <mxGeometry x="-550" y="630" width="160" height="100" as="geometry" />
        </mxCell>
        <mxCell id="uRaay0qYqFroeMQSRzV6-4" style="edgeStyle=orthogonalEdgeStyle;rounded=0;orthogonalLoop=1;jettySize=auto;html=1;entryX=0;entryY=0.25;entryDx=0;entryDy=0;" edge="1" parent="1" source="IHVAyDiuJe2hWlR-bfKC-32" target="uRaay0qYqFroeMQSRzV6-3">
          <mxGeometry relative="1" as="geometry" />
        </mxCell>
        <mxCell id="IHVAyDiuJe2hWlR-bfKC-32" value="&lt;p style=&quot;margin: 0px ; margin-top: 4px ; text-align: center ; text-decoration: underline&quot;&gt;&lt;b&gt;Telefone&lt;/b&gt;&lt;/p&gt;&lt;hr&gt;&lt;p style=&quot;margin: 0px ; margin-left: 8px&quot;&gt;Id&lt;/p&gt;&lt;p style=&quot;margin: 0px ; margin-left: 8px&quot;&gt;contato&lt;/p&gt;&lt;p style=&quot;margin: 0px ; margin-left: 8px&quot;&gt;numero&lt;/p&gt;&lt;p style=&quot;margin: 0px ; margin-left: 8px&quot;&gt;tipo_telefone_id (FK)&lt;/p&gt;&lt;p style=&quot;margin: 0px ; margin-left: 8px&quot;&gt;empresa_id (Fk)&lt;/p&gt;" style="verticalAlign=top;align=left;overflow=fill;fontSize=12;fontFamily=Helvetica;html=1;strokeColor=#003366;shadow=1;fillColor=#D4E1F5;fontColor=#003366" parent="1" vertex="1">
          <mxGeometry x="-550" y="750" width="160" height="110" as="geometry" />
        </mxCell>
        <mxCell id="uRaay0qYqFroeMQSRzV6-6" style="edgeStyle=orthogonalEdgeStyle;rounded=0;orthogonalLoop=1;jettySize=auto;html=1;entryX=0.5;entryY=0;entryDx=0;entryDy=0;" edge="1" parent="1" source="IHVAyDiuJe2hWlR-bfKC-36" target="uRaay0qYqFroeMQSRzV6-5">
          <mxGeometry relative="1" as="geometry" />
        </mxCell>
        <mxCell id="IHVAyDiuJe2hWlR-bfKC-36" value="&lt;p style=&quot;margin: 0px ; margin-top: 4px ; text-align: center ; text-decoration: underline&quot;&gt;&lt;b&gt;Site&lt;/b&gt;&lt;/p&gt;&lt;hr&gt;&lt;p style=&quot;margin: 0px ; margin-left: 8px&quot;&gt;Id&lt;/p&gt;&lt;p style=&quot;margin: 0px ; margin-left: 8px&quot;&gt;nome&lt;/p&gt;&lt;p style=&quot;margin: 0px ; margin-left: 8px&quot;&gt;empresa_id&lt;/p&gt;" style="verticalAlign=top;align=left;overflow=fill;fontSize=12;fontFamily=Helvetica;html=1;strokeColor=#003366;shadow=1;fillColor=#D4E1F5;fontColor=#003366" parent="1" vertex="1">
          <mxGeometry x="-790" y="611.64" width="90" height="80" as="geometry" />
        </mxCell>
        <mxCell id="IHVAyDiuJe2hWlR-bfKC-49" style="edgeStyle=orthogonalEdgeStyle;rounded=0;orthogonalLoop=1;jettySize=auto;html=1;entryX=1;entryY=0.5;entryDx=0;entryDy=0;" parent="1" source="IHVAyDiuJe2hWlR-bfKC-43" target="IHVAyDiuJe2hWlR-bfKC-46" edge="1">
          <mxGeometry relative="1" as="geometry">
            <mxPoint x="100" y="40" as="targetPoint" />
            <Array as="points">
              <mxPoint x="120" y="40" />
              <mxPoint x="120" y="40" />
            </Array>
          </mxGeometry>
        </mxCell>
        <mxCell id="IHVAyDiuJe2hWlR-bfKC-43" value="&lt;p style=&quot;margin: 0px ; margin-top: 4px ; text-align: center ; text-decoration: underline&quot;&gt;&lt;b&gt;programa&lt;/b&gt;&lt;/p&gt;&lt;hr&gt;&lt;p style=&quot;margin: 0px ; margin-left: 8px&quot;&gt;Id&lt;/p&gt;&lt;p style=&quot;margin: 0px ; margin-left: 8px&quot;&gt;nome&lt;/p&gt;" style="verticalAlign=top;align=left;overflow=fill;fontSize=12;fontFamily=Helvetica;html=1;strokeColor=#003366;shadow=1;fillColor=#D4E1F5;fontColor=#003366" parent="1" vertex="1">
          <mxGeometry x="150" width="160" height="120" as="geometry" />
        </mxCell>
        <mxCell id="S3335GlJZNiLPeRAQWJQ-31" style="edgeStyle=orthogonalEdgeStyle;rounded=0;orthogonalLoop=1;jettySize=auto;html=1;exitX=0;exitY=0.25;exitDx=0;exitDy=0;entryX=1.013;entryY=0.389;entryDx=0;entryDy=0;strokeColor=#000000;entryPerimeter=0;" parent="1" source="IHVAyDiuJe2hWlR-bfKC-44" target="S3335GlJZNiLPeRAQWJQ-9" edge="1">
          <mxGeometry relative="1" as="geometry">
            <Array as="points">
              <mxPoint x="150" y="202" />
            </Array>
          </mxGeometry>
        </mxCell>
        <mxCell id="S3335GlJZNiLPeRAQWJQ-47" style="edgeStyle=orthogonalEdgeStyle;rounded=0;orthogonalLoop=1;jettySize=auto;html=1;strokeColor=#000000;entryX=1;entryY=0.75;entryDx=0;entryDy=0;" parent="1" source="IHVAyDiuJe2hWlR-bfKC-44" target="IHVAyDiuJe2hWlR-bfKC-46" edge="1">
          <mxGeometry relative="1" as="geometry">
            <mxPoint x="120" y="80" as="targetPoint" />
            <Array as="points">
              <mxPoint x="130" y="170" />
              <mxPoint x="130" y="80" />
            </Array>
          </mxGeometry>
        </mxCell>
        <mxCell id="IHVAyDiuJe2hWlR-bfKC-44" value="&lt;p style=&quot;margin: 0px ; margin-top: 4px ; text-align: center ; text-decoration: underline&quot;&gt;&lt;b&gt;tempo&lt;/b&gt;&lt;/p&gt;&lt;hr&gt;&lt;p style=&quot;margin: 0px ; margin-left: 8px&quot;&gt;id&lt;/p&gt;&lt;p style=&quot;margin: 0px ; margin-left: 8px&quot;&gt;&lt;br&gt;&lt;/p&gt;&lt;p style=&quot;margin: 0px ; margin-left: 8px&quot;&gt;&lt;span&gt;dia_inicial&lt;/span&gt;&lt;br&gt;&lt;/p&gt;&lt;p style=&quot;margin: 0px ; margin-left: 8px&quot;&gt;dia_final&lt;/p&gt;&lt;p style=&quot;margin: 0px ; margin-left: 8px&quot;&gt;hora_inicial&lt;/p&gt;&lt;p style=&quot;margin: 0px ; margin-left: 8px&quot;&gt;hora_final&lt;/p&gt;&lt;p style=&quot;margin: 0px ; margin-left: 8px&quot;&gt;material_duracao&lt;/p&gt;&lt;p style=&quot;margin: 0px ; margin-left: 8px&quot;&gt;idTempo_exibicao(FK)&lt;/p&gt;" style="verticalAlign=top;align=left;overflow=fill;fontSize=12;fontFamily=Helvetica;html=1;strokeColor=#003366;shadow=1;fillColor=#D4E1F5;fontColor=#003366" parent="1" vertex="1">
          <mxGeometry x="150" y="130" width="160" height="180" as="geometry" />
        </mxCell>
        <mxCell id="Db5_0AzRxlFm09WnYyrj-17" style="edgeStyle=orthogonalEdgeStyle;rounded=0;orthogonalLoop=1;jettySize=auto;html=1;entryX=0.001;entryY=0.794;entryDx=0;entryDy=0;entryPerimeter=0;exitX=1.008;exitY=0.336;exitDx=0;exitDy=0;exitPerimeter=0;" parent="1" source="IHVAyDiuJe2hWlR-bfKC-46" target="Db5_0AzRxlFm09WnYyrj-10" edge="1">
          <mxGeometry relative="1" as="geometry">
            <mxPoint x="130" y="10" as="sourcePoint" />
            <Array as="points">
              <mxPoint x="91" y="-20" />
              <mxPoint x="350" y="-20" />
              <mxPoint x="350" y="-143" />
            </Array>
          </mxGeometry>
        </mxCell>
        <mxCell id="IHVAyDiuJe2hWlR-bfKC-46" value="&lt;p style=&quot;margin: 0px ; margin-top: 4px ; text-align: center ; text-decoration: underline&quot;&gt;&lt;b&gt;FKProgramacao&lt;/b&gt;&lt;/p&gt;&lt;hr&gt;&lt;p style=&quot;margin: 0px ; margin-left: 8px&quot;&gt;id&lt;/p&gt;&lt;p style=&quot;margin: 0px ; margin-left: 8px&quot;&gt;&lt;span&gt;idVeiculo(FK)&lt;/span&gt;&lt;br&gt;&lt;/p&gt;&lt;p style=&quot;margin: 0px ; margin-left: 8px&quot;&gt;&lt;span&gt;IdPrograma(FK)&lt;/span&gt;&lt;br&gt;&lt;/p&gt;&lt;p style=&quot;margin: 0px ; margin-left: 8px&quot;&gt;idTempo(FK)&lt;br&gt;&lt;/p&gt;&lt;p style=&quot;margin: 0px ; margin-left: 8px&quot;&gt;idvalores(FK)&lt;/p&gt;&lt;p style=&quot;margin: 0px ; margin-left: 8px&quot;&gt;idGenero(FK)&lt;/p&gt;&lt;p style=&quot;margin: 0px ; margin-left: 8px&quot;&gt;idTipo_anuncio(FK)&lt;br&gt;&lt;/p&gt;&lt;p style=&quot;margin: 0px ; margin-left: 8px&quot;&gt;observacao&lt;/p&gt;&lt;p style=&quot;margin: 0px ; margin-left: 8px&quot;&gt;&lt;br&gt;&lt;/p&gt;&lt;p style=&quot;margin: 0px 0px 0px 8px&quot;&gt;&lt;br&gt;&lt;/p&gt;" style="verticalAlign=top;align=left;overflow=fill;fontSize=12;fontFamily=Helvetica;html=1;strokeColor=#003366;shadow=1;fillColor=#D4E1F5;fontColor=#003366" parent="1" vertex="1">
          <mxGeometry x="-70" y="-40" width="160" height="160" as="geometry" />
        </mxCell>
        <mxCell id="IHVAyDiuJe2hWlR-bfKC-72" value="&lt;p style=&quot;margin: 0px ; margin-top: 4px ; text-align: center ; text-decoration: underline&quot;&gt;&lt;b&gt;tabela_conversao&lt;/b&gt;&lt;/p&gt;&lt;hr&gt;&lt;p style=&quot;margin: 0px ; margin-left: 8px&quot;&gt;id&lt;/p&gt;&lt;p style=&quot;margin: 0px ; margin-left: 8px&quot;&gt;idTabela_conversao_base(FK)&lt;/p&gt;&lt;p style=&quot;margin: 0px ; margin-left: 8px&quot;&gt;segundos&lt;/p&gt;&lt;p style=&quot;margin: 0px ; margin-left: 8px&quot;&gt;percentual&lt;/p&gt;&lt;p style=&quot;margin: 0px ; margin-left: 8px&quot;&gt;idVeiculo(FK)&lt;/p&gt;" style="verticalAlign=top;align=left;overflow=fill;fontSize=12;fontFamily=Helvetica;html=1;strokeColor=#003366;shadow=1;fillColor=#D4E1F5;fontColor=#003366" parent="1" vertex="1">
          <mxGeometry x="-410" y="-130" width="180" height="130" as="geometry" />
        </mxCell>
        <mxCell id="IHVAyDiuJe2hWlR-bfKC-74" style="edgeStyle=orthogonalEdgeStyle;rounded=0;orthogonalLoop=1;jettySize=auto;html=1;" parent="1" source="IHVAyDiuJe2hWlR-bfKC-73" target="IHVAyDiuJe2hWlR-bfKC-72" edge="1">
          <mxGeometry relative="1" as="geometry" />
        </mxCell>
        <mxCell id="IHVAyDiuJe2hWlR-bfKC-73" value="&lt;p style=&quot;margin: 0px ; margin-top: 4px ; text-align: center ; text-decoration: underline&quot;&gt;&lt;b&gt;tabela_conversao_base&lt;/b&gt;&lt;/p&gt;&lt;hr&gt;&lt;p style=&quot;margin: 0px ; margin-left: 8px&quot;&gt;id&lt;/p&gt;&lt;p style=&quot;margin: 0px ; margin-left: 8px&quot;&gt;tempo&lt;/p&gt;&lt;p style=&quot;margin: 0px ; margin-left: 8px&quot;&gt;&lt;br&gt;&lt;/p&gt;" style="verticalAlign=top;align=left;overflow=fill;fontSize=12;fontFamily=Helvetica;html=1;strokeColor=#003366;shadow=1;fillColor=#D4E1F5;fontColor=#003366" parent="1" vertex="1">
          <mxGeometry x="-400" y="-295" width="160" height="130" as="geometry" />
        </mxCell>
        <mxCell id="S3335GlJZNiLPeRAQWJQ-17" style="edgeStyle=orthogonalEdgeStyle;rounded=0;orthogonalLoop=1;jettySize=auto;html=1;entryX=0.875;entryY=0.99;entryDx=0;entryDy=0;entryPerimeter=0;" parent="1" source="IHVAyDiuJe2hWlR-bfKC-83" target="IHVAyDiuJe2hWlR-bfKC-7" edge="1">
          <mxGeometry relative="1" as="geometry">
            <Array as="points">
              <mxPoint x="-260" y="260" />
              <mxPoint x="-260" y="260" />
            </Array>
          </mxGeometry>
        </mxCell>
        <mxCell id="IHVAyDiuJe2hWlR-bfKC-83" value="&lt;p style=&quot;margin: 0px ; margin-top: 4px ; text-align: center ; text-decoration: underline&quot;&gt;&lt;b&gt;FKveiculo_uf_cidade&lt;/b&gt;&lt;/p&gt;&lt;hr&gt;&lt;p style=&quot;margin: 0px ; margin-left: 8px&quot;&gt;Id&lt;/p&gt;&lt;p style=&quot;margin: 0px ; margin-left: 8px&quot;&gt;idVeiculo(Fk)&lt;/p&gt;&lt;p style=&quot;margin: 0px ; margin-left: 8px&quot;&gt;idUF(FK)&lt;/p&gt;&lt;p style=&quot;margin: 0px ; margin-left: 8px&quot;&gt;idCidade(FK)&lt;/p&gt;" style="verticalAlign=top;align=left;overflow=fill;fontSize=12;fontFamily=Helvetica;html=1;strokeColor=#003366;shadow=1;fillColor=#D4E1F5;fontColor=#003366" parent="1" vertex="1">
          <mxGeometry x="-310" y="280" width="160" height="110" as="geometry" />
        </mxCell>
        <mxCell id="S3335GlJZNiLPeRAQWJQ-9" value="&lt;p style=&quot;margin: 0px ; margin-top: 4px ; text-align: center ; text-decoration: underline&quot;&gt;&lt;b&gt;FKPublicacao&lt;/b&gt;&lt;/p&gt;&lt;hr&gt;&lt;p style=&quot;margin: 0px ; margin-left: 8px&quot;&gt;id&lt;/p&gt;&lt;p style=&quot;margin: 0px ; margin-left: 8px&quot;&gt;&lt;span&gt;idVeiculo(FK)&lt;/span&gt;&lt;br&gt;&lt;/p&gt;&lt;p style=&quot;margin: 0px ; margin-left: 8px&quot;&gt;&lt;span&gt;idTempo(FK)&lt;/span&gt;&lt;br&gt;&lt;/p&gt;&lt;p style=&quot;margin: 0px ; margin-left: 8px&quot;&gt;idTipo_anuncio(FK)&lt;/p&gt;&lt;p style=&quot;margin: 0px ; margin-left: 8px&quot;&gt;idvalores(FK)&lt;/p&gt;&lt;p style=&quot;margin: 0px ; margin-left: 8px&quot;&gt;observacao&lt;/p&gt;&lt;p style=&quot;margin: 0px ; margin-left: 8px&quot;&gt;&lt;br&gt;&lt;/p&gt;&lt;p style=&quot;margin: 0px 0px 0px 8px&quot;&gt;&lt;br&gt;&lt;/p&gt;" style="verticalAlign=top;align=left;overflow=fill;fontSize=12;fontFamily=Helvetica;html=1;strokeColor=#003366;shadow=1;fillColor=#D4E1F5;fontColor=#003366" parent="1" vertex="1">
          <mxGeometry x="-70" y="139.17999999999995" width="160" height="161.64" as="geometry" />
        </mxCell>
        <mxCell id="S3335GlJZNiLPeRAQWJQ-20" style="edgeStyle=orthogonalEdgeStyle;rounded=0;orthogonalLoop=1;jettySize=auto;html=1;entryX=1;entryY=0.5;entryDx=0;entryDy=0;" parent="1" source="S3335GlJZNiLPeRAQWJQ-14" target="S3335GlJZNiLPeRAQWJQ-15" edge="1">
          <mxGeometry relative="1" as="geometry" />
        </mxCell>
        <mxCell id="S3335GlJZNiLPeRAQWJQ-14" value="&lt;p style=&quot;margin: 0px ; margin-top: 4px ; text-align: center ; text-decoration: underline&quot;&gt;&lt;b&gt;formato&lt;/b&gt;&lt;/p&gt;&lt;hr&gt;&lt;p style=&quot;margin: 0px ; margin-left: 8px&quot;&gt;Id&lt;/p&gt;&lt;p style=&quot;margin: 0px ; margin-left: 8px&quot;&gt;formato_anuncio&lt;/p&gt;&lt;p style=&quot;margin: 0px ; margin-left: 8px&quot;&gt;descricao_formato_anuncio&lt;/p&gt;&lt;p style=&quot;margin: 0px ; margin-left: 8px&quot;&gt;altura_minima&lt;/p&gt;&lt;p style=&quot;margin: 0px ; margin-left: 8px&quot;&gt;altura_maxima&lt;br&gt;&lt;/p&gt;&lt;p style=&quot;margin: 0px 0px 0px 8px&quot;&gt;largura_minima&lt;/p&gt;&lt;p style=&quot;margin: 0px 0px 0px 8px&quot;&gt;largura_maxima&lt;/p&gt;&lt;p style=&quot;margin: 0px ; margin-left: 8px&quot;&gt;cor&lt;/p&gt;&lt;p style=&quot;margin: 0px ; margin-left: 8px&quot;&gt;&lt;br&gt;&lt;/p&gt;&lt;p style=&quot;margin: 0px ; margin-left: 8px&quot;&gt;&lt;br&gt;&lt;/p&gt;" style="verticalAlign=top;align=left;overflow=fill;fontSize=12;fontFamily=Helvetica;html=1;strokeColor=#003366;shadow=1;fillColor=#D4E1F5;fontColor=#003366" parent="1" vertex="1">
          <mxGeometry x="600" y="63.53" width="180" height="134.59" as="geometry" />
        </mxCell>
        <mxCell id="S3335GlJZNiLPeRAQWJQ-21" style="edgeStyle=orthogonalEdgeStyle;rounded=0;orthogonalLoop=1;jettySize=auto;html=1;entryX=1.006;entryY=0.58;entryDx=0;entryDy=0;entryPerimeter=0;exitX=0.399;exitY=1.024;exitDx=0;exitDy=0;exitPerimeter=0;" parent="1" source="S3335GlJZNiLPeRAQWJQ-15" target="S3335GlJZNiLPeRAQWJQ-9" edge="1">
          <mxGeometry relative="1" as="geometry">
            <mxPoint x="120" y="230" as="targetPoint" />
            <Array as="points">
              <mxPoint x="464" y="330" />
              <mxPoint x="120" y="330" />
              <mxPoint x="120" y="233" />
            </Array>
            <mxPoint x="630" y="256" as="sourcePoint" />
          </mxGeometry>
        </mxCell>
        <mxCell id="Db5_0AzRxlFm09WnYyrj-7" style="edgeStyle=orthogonalEdgeStyle;rounded=0;orthogonalLoop=1;jettySize=auto;html=1;exitX=0.5;exitY=0;exitDx=0;exitDy=0;" parent="1" source="S3335GlJZNiLPeRAQWJQ-15" edge="1">
          <mxGeometry relative="1" as="geometry">
            <mxPoint x="90" y="10" as="targetPoint" />
            <Array as="points">
              <mxPoint x="480" y="-10" />
              <mxPoint x="140" y="-10" />
              <mxPoint x="140" y="10" />
            </Array>
          </mxGeometry>
        </mxCell>
        <mxCell id="3JUktmmr_IrkGArznt6v-1" style="edgeStyle=orthogonalEdgeStyle;rounded=0;orthogonalLoop=1;jettySize=auto;html=1;entryX=1.014;entryY=0.447;entryDx=0;entryDy=0;entryPerimeter=0;" parent="1" source="S3335GlJZNiLPeRAQWJQ-15" target="S3335GlJZNiLPeRAQWJQ-48" edge="1">
          <mxGeometry relative="1" as="geometry">
            <mxPoint x="480" y="450" as="targetPoint" />
            <Array as="points">
              <mxPoint x="480" y="445" />
            </Array>
          </mxGeometry>
        </mxCell>
        <mxCell id="S3335GlJZNiLPeRAQWJQ-15" value="&lt;p style=&quot;margin: 0px ; margin-top: 4px ; text-align: center ; text-decoration: underline&quot;&gt;&lt;b&gt;tipo_anuncio&lt;/b&gt;&lt;/p&gt;&lt;hr&gt;&lt;p style=&quot;margin: 0px ; margin-left: 8px&quot;&gt;Id&lt;/p&gt;&lt;p style=&quot;margin: 0px ; margin-left: 8px&quot;&gt;tipo&lt;/p&gt;&lt;p style=&quot;margin: 0px ; margin-left: 8px&quot;&gt;idFormato(FK)&lt;/p&gt;" style="verticalAlign=top;align=left;overflow=fill;fontSize=12;fontFamily=Helvetica;html=1;strokeColor=#003366;shadow=1;fillColor=#D4E1F5;fontColor=#003366" parent="1" vertex="1">
          <mxGeometry x="400" y="70.81999999999996" width="160" height="120" as="geometry" />
        </mxCell>
        <mxCell id="S3335GlJZNiLPeRAQWJQ-39" style="edgeStyle=orthogonalEdgeStyle;rounded=0;orthogonalLoop=1;jettySize=auto;html=1;strokeColor=#000000;" parent="1" source="S3335GlJZNiLPeRAQWJQ-32" target="IHVAyDiuJe2hWlR-bfKC-46" edge="1">
          <mxGeometry relative="1" as="geometry">
            <Array as="points">
              <mxPoint x="10" y="-120" />
              <mxPoint x="10" y="-120" />
            </Array>
          </mxGeometry>
        </mxCell>
        <mxCell id="S3335GlJZNiLPeRAQWJQ-41" style="edgeStyle=orthogonalEdgeStyle;rounded=0;orthogonalLoop=1;jettySize=auto;html=1;strokeColor=#000000;entryX=0;entryY=0.25;entryDx=0;entryDy=0;" parent="1" source="S3335GlJZNiLPeRAQWJQ-32" target="S3335GlJZNiLPeRAQWJQ-9" edge="1">
          <mxGeometry relative="1" as="geometry">
            <mxPoint x="-110" y="410" as="targetPoint" />
            <Array as="points">
              <mxPoint x="-60" y="-105" />
              <mxPoint x="-120" y="-105" />
              <mxPoint x="-120" y="180" />
            </Array>
          </mxGeometry>
        </mxCell>
        <mxCell id="Db5_0AzRxlFm09WnYyrj-6" style="edgeStyle=orthogonalEdgeStyle;rounded=0;orthogonalLoop=1;jettySize=auto;html=1;entryX=-0.007;entryY=0.632;entryDx=0;entryDy=0;entryPerimeter=0;" parent="1" source="S3335GlJZNiLPeRAQWJQ-32" target="S3335GlJZNiLPeRAQWJQ-48" edge="1">
          <mxGeometry relative="1" as="geometry">
            <mxPoint x="-90" y="463.3333740234375" as="targetPoint" />
            <Array as="points">
              <mxPoint x="20" y="-260" />
              <mxPoint x="-100" y="-260" />
              <mxPoint x="-100" y="468" />
            </Array>
          </mxGeometry>
        </mxCell>
        <mxCell id="S3335GlJZNiLPeRAQWJQ-32" value="&lt;p style=&quot;margin: 0px ; margin-top: 4px ; text-align: center ; text-decoration: underline&quot;&gt;&lt;b&gt;Valores&lt;/b&gt;&lt;/p&gt;&lt;hr&gt;&lt;p style=&quot;margin: 0px ; margin-left: 8px&quot;&gt;Id&lt;/p&gt;&lt;p style=&quot;margin: 0px ; margin-left: 8px&quot;&gt;&lt;span&gt;custo_a&lt;/span&gt;&lt;br&gt;&lt;/p&gt;&lt;p style=&quot;margin: 0px ; margin-left: 8px&quot;&gt;custo_b&lt;span&gt;&lt;br&gt;&lt;/span&gt;&lt;/p&gt;&lt;p style=&quot;margin: 0px ; margin-left: 8px&quot;&gt;custo_c&lt;br&gt;&lt;/p&gt;&lt;p style=&quot;margin: 0px ; margin-left: 8px&quot;&gt;custo_total&lt;/p&gt;&lt;p style=&quot;margin: 0px ; margin-left: 8px&quot;&gt;&lt;span&gt;idValores_categoria(FK)&lt;/span&gt;&lt;/p&gt;&lt;p style=&quot;margin: 0px ; margin-left: 8px&quot;&gt;&lt;span style=&quot;text-align: center&quot;&gt;custo_desconto&lt;/span&gt;&lt;/p&gt;&lt;p style=&quot;margin: 0px ; margin-left: 8px&quot;&gt;custo_sinal&lt;/p&gt;&lt;p style=&quot;margin: 0px ; margin-left: 8px&quot;&gt;&lt;span style=&quot;text-align: center&quot;&gt;percentual&lt;/span&gt;&lt;br&gt;&lt;/p&gt;&lt;p style=&quot;margin: 0px ; margin-left: 8px&quot;&gt;&lt;br&gt;&lt;/p&gt;" style="verticalAlign=top;align=left;overflow=fill;fontSize=12;fontFamily=Helvetica;html=1;strokeColor=#003366;shadow=1;fillColor=#D4E1F5;fontColor=#003366" parent="1" vertex="1">
          <mxGeometry x="-70" y="-240" width="160" height="170" as="geometry" />
        </mxCell>
        <mxCell id="S3335GlJZNiLPeRAQWJQ-38" style="edgeStyle=orthogonalEdgeStyle;rounded=0;orthogonalLoop=1;jettySize=auto;html=1;strokeColor=#000000;entryX=1;entryY=0.5;entryDx=0;entryDy=0;" parent="1" source="S3335GlJZNiLPeRAQWJQ-35" target="S3335GlJZNiLPeRAQWJQ-32" edge="1">
          <mxGeometry relative="1" as="geometry">
            <mxPoint x="320" y="-80" as="targetPoint" />
          </mxGeometry>
        </mxCell>
        <mxCell id="S3335GlJZNiLPeRAQWJQ-35" value="&lt;p style=&quot;margin: 0px ; margin-top: 4px ; text-align: center ; text-decoration: underline&quot;&gt;&lt;b&gt;valores_categoria&lt;/b&gt;&lt;/p&gt;&lt;hr&gt;&lt;p style=&quot;margin: 0px ; margin-left: 8px&quot;&gt;Id&lt;/p&gt;&lt;p style=&quot;margin: 0px ; margin-left: 8px&quot;&gt;nome&lt;/p&gt;&lt;p style=&quot;margin: 0px ; margin-left: 8px&quot;&gt;&lt;br&gt;&lt;/p&gt;&lt;p style=&quot;margin: 0px ; margin-left: 8px&quot;&gt;&lt;br&gt;&lt;/p&gt;&lt;p style=&quot;margin: 0px ; margin-left: 8px&quot;&gt;&lt;br&gt;&lt;/p&gt;" style="verticalAlign=top;align=left;overflow=fill;fontSize=12;fontFamily=Helvetica;html=1;strokeColor=#003366;shadow=1;fillColor=#D4E1F5;fontColor=#003366" parent="1" vertex="1">
          <mxGeometry x="160" y="-295" width="160" height="120" as="geometry" />
        </mxCell>
        <mxCell id="S3335GlJZNiLPeRAQWJQ-46" style="edgeStyle=orthogonalEdgeStyle;rounded=0;orthogonalLoop=1;jettySize=auto;html=1;strokeColor=#000000;" parent="1" source="S3335GlJZNiLPeRAQWJQ-45" edge="1">
          <mxGeometry relative="1" as="geometry">
            <mxPoint x="90" y="-30" as="targetPoint" />
            <Array as="points">
              <mxPoint x="110" y="-100" />
              <mxPoint x="110" y="-30" />
              <mxPoint x="90" y="-30" />
            </Array>
          </mxGeometry>
        </mxCell>
        <mxCell id="3JUktmmr_IrkGArznt6v-2" style="edgeStyle=orthogonalEdgeStyle;rounded=0;orthogonalLoop=1;jettySize=auto;html=1;entryX=1;entryY=0.75;entryDx=0;entryDy=0;" parent="1" source="S3335GlJZNiLPeRAQWJQ-45" target="S3335GlJZNiLPeRAQWJQ-48" edge="1">
          <mxGeometry relative="1" as="geometry">
            <mxPoint x="350" y="510" as="targetPoint" />
            <Array as="points">
              <mxPoint x="360" y="-100" />
              <mxPoint x="360" y="482" />
            </Array>
          </mxGeometry>
        </mxCell>
        <mxCell id="S3335GlJZNiLPeRAQWJQ-45" value="&lt;p style=&quot;margin: 0px ; margin-top: 4px ; text-align: center ; text-decoration: underline&quot;&gt;&lt;b&gt;genero&lt;/b&gt;&lt;/p&gt;&lt;hr&gt;&lt;p style=&quot;margin: 0px ; margin-left: 8px&quot;&gt;Id&lt;/p&gt;&lt;p style=&quot;margin: 0px ; margin-left: 8px&quot;&gt;nome&lt;/p&gt;" style="verticalAlign=top;align=left;overflow=fill;fontSize=12;fontFamily=Helvetica;html=1;strokeColor=#003366;shadow=1;fillColor=#D4E1F5;fontColor=#003366" parent="1" vertex="1">
          <mxGeometry x="160" y="-160" width="160" height="120" as="geometry" />
        </mxCell>
        <mxCell id="S3335GlJZNiLPeRAQWJQ-48" value="&lt;p style=&quot;margin: 0px ; margin-top: 4px ; text-align: center ; text-decoration: underline&quot;&gt;&lt;b&gt;Sinapro&lt;/b&gt;&lt;/p&gt;&lt;hr&gt;&lt;p style=&quot;margin: 0px 0px 0px 8px&quot;&gt;id&lt;/p&gt;&lt;p style=&quot;margin: 0px 0px 0px 8px&quot;&gt;idVeiculo(FK)&lt;br&gt;&lt;/p&gt;&lt;p style=&quot;margin: 0px 0px 0px 8px&quot;&gt;idGenero(FK)&lt;/p&gt;&lt;p style=&quot;margin: 0px 0px 0px 8px&quot;&gt;&lt;span&gt;idTipo_anuncio(FK)&lt;/span&gt;&lt;br&gt;&lt;/p&gt;&lt;p style=&quot;margin: 0px 0px 0px 8px&quot;&gt;idvalores(FK)&lt;/p&gt;&lt;p style=&quot;margin: 0px 0px 0px 8px&quot;&gt;observacao&lt;/p&gt;&lt;p style=&quot;margin: 0px 0px 0px 8px&quot;&gt;&lt;br&gt;&lt;/p&gt;" style="verticalAlign=top;align=left;overflow=fill;fontSize=12;fontFamily=Helvetica;html=1;strokeColor=#003366;shadow=1;fillColor=#D4E1F5;fontColor=#003366" parent="1" vertex="1">
          <mxGeometry x="-60" y="391.64" width="160" height="120" as="geometry" />
        </mxCell>
        <mxCell id="Db5_0AzRxlFm09WnYyrj-10" value="&lt;p style=&quot;margin: 0px ; margin-top: 4px ; text-align: center ; text-decoration: underline&quot;&gt;&lt;b&gt;base_calculo&lt;/b&gt;&lt;/p&gt;&lt;hr&gt;&lt;p style=&quot;margin: 0px ; margin-left: 8px&quot;&gt;Id&lt;/p&gt;&lt;p style=&quot;margin: 0px ; margin-left: 8px&quot;&gt;IdProgramacao(FK)&lt;br&gt;&lt;/p&gt;&lt;p style=&quot;margin: 0px ; margin-left: 8px&quot;&gt;&lt;span&gt;preco&lt;/span&gt;&lt;br&gt;&lt;/p&gt;&lt;p style=&quot;margin: 0px ; margin-left: 8px&quot;&gt;numero_colunas&lt;/p&gt;&lt;p style=&quot;margin: 0px ; margin-left: 8px&quot;&gt;&lt;br&gt;&lt;/p&gt;&lt;p style=&quot;margin: 0px ; margin-left: 8px&quot;&gt;&lt;br&gt;&lt;/p&gt;&lt;p style=&quot;margin: 0px ; margin-left: 8px&quot;&gt;&lt;br&gt;&lt;/p&gt;&lt;p style=&quot;margin: 0px ; margin-left: 8px&quot;&gt;&lt;br&gt;&lt;/p&gt;&lt;p style=&quot;margin: 0px ; margin-left: 8px&quot;&gt;&lt;br&gt;&lt;/p&gt;" style="verticalAlign=top;align=left;overflow=fill;fontSize=12;fontFamily=Helvetica;html=1;strokeColor=#003366;shadow=1;fillColor=#D4E1F5;fontColor=#003366" parent="1" vertex="1">
          <mxGeometry x="390" y="-230" width="180" height="110" as="geometry" />
        </mxCell>
        <mxCell id="Db5_0AzRxlFm09WnYyrj-18" value="&lt;p style=&quot;margin: 0px ; margin-top: 4px ; text-align: center ; text-decoration: underline&quot;&gt;&lt;b&gt;distribuicao_abrangencia&lt;/b&gt;&lt;/p&gt;&lt;hr&gt;&lt;p style=&quot;margin: 0px 0px 0px 8px&quot;&gt;Id&lt;/p&gt;&lt;p style=&quot;margin: 0px 0px 0px 8px&quot;&gt;idUF(FK)&lt;/p&gt;&lt;p style=&quot;margin: 0px 0px 0px 8px&quot;&gt;idCidade(FK)&lt;/p&gt;&lt;p style=&quot;margin: 0px 0px 0px 8px&quot;&gt;idUF(FK)&lt;/p&gt;&lt;p style=&quot;margin: 0px 0px 0px 8px&quot;&gt;idCidade(FK)&lt;/p&gt;&lt;p style=&quot;margin: 0px 0px 0px 8px&quot;&gt;&lt;span&gt;idTempo(FK)&lt;/span&gt;&lt;br&gt;&lt;/p&gt;&lt;p style=&quot;margin: 0px 0px 0px 8px&quot;&gt;idVeiculo(FK)&lt;/p&gt;&lt;p style=&quot;margin: 0px 0px 0px 8px&quot;&gt;transportadora&lt;/p&gt;&lt;p style=&quot;margin: 0px 0px 0px 8px&quot;&gt;numero_exemplares&lt;/p&gt;&lt;p style=&quot;margin: 0px 0px 0px 8px&quot;&gt;&lt;br&gt;&lt;/p&gt;" style="verticalAlign=top;align=left;overflow=fill;fontSize=12;fontFamily=Helvetica;html=1;strokeColor=#003366;shadow=1;fillColor=#D4E1F5;fontColor=#003366" parent="1" vertex="1">
          <mxGeometry x="-630" y="-185" width="190" height="185" as="geometry" />
        </mxCell>
        <mxCell id="3JUktmmr_IrkGArznt6v-5" style="edgeStyle=orthogonalEdgeStyle;rounded=0;orthogonalLoop=1;jettySize=auto;html=1;entryX=0.75;entryY=1;entryDx=0;entryDy=0;" parent="1" source="3JUktmmr_IrkGArznt6v-4" target="IHVAyDiuJe2hWlR-bfKC-44" edge="1">
          <mxGeometry relative="1" as="geometry">
            <Array as="points">
              <mxPoint x="270" y="370" />
            </Array>
          </mxGeometry>
        </mxCell>
        <mxCell id="3JUktmmr_IrkGArznt6v-4" value="&lt;p style=&quot;margin: 0px ; margin-top: 4px ; text-align: center ; text-decoration: underline&quot;&gt;&lt;b&gt;tempo_exibicao&lt;/b&gt;&lt;/p&gt;&lt;hr&gt;&lt;p style=&quot;margin: 0px ; margin-left: 8px&quot;&gt;id&lt;/p&gt;&lt;p style=&quot;margin: 0px ; margin-left: 8px&quot;&gt;nome&lt;/p&gt;&lt;p style=&quot;margin: 0px ; margin-left: 8px&quot;&gt;descricao&lt;/p&gt;" style="verticalAlign=top;align=left;overflow=fill;fontSize=12;fontFamily=Helvetica;html=1;strokeColor=#003366;shadow=1;fillColor=#D4E1F5;fontColor=#003366" parent="1" vertex="1">
          <mxGeometry x="580" y="250" width="160" height="180" as="geometry" />
        </mxCell>
        <mxCell id="3JUktmmr_IrkGArznt6v-6" value="&lt;p style=&quot;margin: 0px ; margin-top: 4px ; text-align: center ; text-decoration: underline&quot;&gt;&lt;b&gt;tempo_exibicao&lt;/b&gt;&lt;/p&gt;&lt;hr&gt;&lt;p style=&quot;margin: 0px ; margin-left: 8px&quot;&gt;id&lt;/p&gt;&lt;p style=&quot;margin: 0px ; margin-left: 8px&quot;&gt;diaria(bool)&lt;/p&gt;&lt;p style=&quot;margin: 0px ; margin-left: 8px&quot;&gt;mes(bool)&lt;/p&gt;&lt;p style=&quot;margin: 0px ; margin-left: 8px&quot;&gt;diasUteis(bool)&lt;br&gt;&lt;/p&gt;&lt;p style=&quot;margin: 0px ; margin-left: 8px&quot;&gt;finaldeSemana(bool)&lt;br&gt;&lt;/p&gt;&lt;p style=&quot;margin: 0px ; margin-left: 8px&quot;&gt;&lt;br&gt;&lt;/p&gt;" style="verticalAlign=top;align=left;overflow=fill;fontSize=12;fontFamily=Helvetica;html=1;strokeColor=#003366;shadow=1;fillColor=#D4E1F5;fontColor=#003366" parent="1" vertex="1">
          <mxGeometry x="790" y="245" width="160" height="180" as="geometry" />
        </mxCell>
        <mxCell id="pWZ6Bo8y2bVhWnRweAg2-4" value="What&#39;sApp&lt;br&gt;Celular&lt;br&gt;Fixo" style="text;html=1;align=center;verticalAlign=middle;whiteSpace=wrap;rounded=0;strokeColor=#000000;" parent="1" vertex="1">
          <mxGeometry x="-350" y="630" width="80" height="50" as="geometry" />
        </mxCell>
        <mxCell id="uRaay0qYqFroeMQSRzV6-3" value="1&lt;br&gt;Maria&lt;br&gt;32985569&lt;br&gt;Fixo&lt;br&gt;9999-9245&lt;br&gt;What&#39;sApp&lt;br&gt;RÃ¡dio FM" style="text;html=1;align=center;verticalAlign=middle;whiteSpace=wrap;rounded=0;strokeColor=#000000;" vertex="1" parent="1">
          <mxGeometry x="-360" y="750" width="120" height="110" as="geometry" />
        </mxCell>
        <mxCell id="uRaay0qYqFroeMQSRzV6-5" value="1&lt;br&gt;www.radiofm.com.br&lt;br&gt;RÃ¡dio FM" style="text;html=1;align=center;verticalAlign=middle;whiteSpace=wrap;rounded=0;strokeColor=#000000;" vertex="1" parent="1">
          <mxGeometry x="-805" y="730" width="120" height="60" as="geometry" />
        </mxCell>
        <mxCell id="uRaay0qYqFroeMQSRzV6-8" value="1&lt;br&gt;RÃ¡dio FM&lt;br&gt;radiofm@hotmail.com&lt;br&gt;02.345.543/0001-90&lt;br&gt;Rua 4&lt;br&gt;2354&lt;br&gt;FlodoaldoP. P&lt;br&gt;768.20-608&lt;br&gt;Porto Velho&lt;br&gt;Vilhena&lt;br&gt;Jamari&lt;br&gt;RondÃ´nia" style="text;html=1;align=center;verticalAlign=middle;whiteSpace=wrap;rounded=0;strokeColor=#000000;" vertex="1" parent="1">
          <mxGeometry x="-957" y="355" width="130" height="170" as="geometry" />
        </mxCell>
        <mxCell id="uRaay0qYqFroeMQSRzV6-12" value="RÃ¡dio&lt;br&gt;Tv&lt;br&gt;Cinema&lt;br&gt;Site&lt;br&gt;Jornal" style="text;html=1;align=center;verticalAlign=middle;whiteSpace=wrap;rounded=0;strokeColor=#000000;" vertex="1" parent="1">
          <mxGeometry x="-760" y="50" width="130" height="100" as="geometry" />
        </mxCell>
      </root>
    </mxGraphModel>
  </diagram>
</mxfile>
